<svg xmlns="http://www.w3.org/2000/svg" width="26.833" height="20.558" viewBox="0 0 26.833 20.558"><defs><style>.a{fill:#d3006b;}</style></defs><g transform="translate(0 0)"><path class="a" d="M325.587,1131.545h-2.925a.193.193,0,0,1-.192-.192v-.712a.193.193,0,0,0-.192-.192h-4.092a.193.193,0,0,0-.192.192v.712a.193.193,0,0,1-.192.192h-2.2a.192.192,0,0,0-.192.192v.823a.193.193,0,0,0,.192.192h9.984a.192.192,0,0,0,.191-.192v-.823a.191.191,0,0,0-.191-.192Zm0,0" transform="translate(-304.985 -1112.289)"/><path class="a" d="M329.134,1108.792H308.262a1.318,1.318,0,0,0-1.316,1.317v3.435c0,.454-.034.518.271.518h.522c.256,0,.2-.065.2-.527v-3.427a.325.325,0,0,1,.32-.32h20.871a.325.325,0,0,1,.32.32v12.858h-14.88s-.524,0-.524.678v1.608c0,.677.541.677.541.677h14.543a1.318,1.318,0,0,0,1.317-1.316v-14.5a1.319,1.319,0,0,0-1.317-1.317Zm-10.436,16a.593.593,0,1,1,.594-.594.594.594,0,0,1-.594.594Zm0,0" transform="translate(-303.618 -1108.792)"/><path class="a" d="M311.378,1116.481h-7.55a.85.85,0,0,0-.85.85v12.41a.851.851,0,0,0,.85.85h7.55a.851.851,0,0,0,.849-.85v-12.41a.85.85,0,0,0-.849-.85Zm-4.707.867h1.862a.161.161,0,1,1,0,.322h-1.862a.161.161,0,0,1,0-.322Zm.92,12.646a.44.44,0,1,1,.44-.44.439.439,0,0,1-.44.44Zm3.907-1.293a.205.205,0,0,1-.2.206h-7.386a.2.2,0,0,1-.2-.206v-10.312a.2.2,0,0,1,.2-.206H311.3a.205.205,0,0,1,.2.206Zm0,0" transform="translate(-302.977 -1110.033)"/></g></svg>