<svg xmlns="http://www.w3.org/2000/svg" width="26.833" height="26.833" viewBox="0 0 26.833 26.833"><defs><style>.a{fill:#383838;}</style></defs><path class="a" d="M325.881,1190.98a13.418,13.418,0,1,1-9.487-3.929,13.329,13.329,0,0,1,9.487,3.929Zm-1.187,17.788a11.653,11.653,0,0,0,3.2-5.949c-.353.519-.69.712-.9-.451-.215-1.9-1.958-.685-3.053-1.359-1.153.777-3.745-1.511-3.3,1.07.679,1.164,3.669-1.558,2.178.9-.951,1.72-3.476,5.528-3.148,7.5.042,2.875-2.938.6-3.965-.355-.691-1.91-.236-5.25-2.041-6.186-1.961-.086-3.643-.263-4.4-2.455-.457-1.567.486-3.9,2.166-4.261,2.459-1.545,3.338,1.81,5.644,1.872.717-.749,2.668-.988,2.83-1.827-1.514-.267,1.92-1.273-.144-1.845-1.14.134-1.873,1.182-1.268,2.07-2.207.514-2.278-3.195-4.4-2.025-.055,1.85-3.465.6-1.181.225.785-.343-1.28-1.337-.164-1.156.548-.029,2.393-.676,1.894-1.111,1.027-.637,1.891,1.528,2.9-.049.726-1.212-.3-1.436-1.214-.821-.513-.575.906-1.816,2.158-2.352a2.485,2.485,0,0,1,1.119-.248c.631.728,1.8.854,1.857-.088a11.772,11.772,0,0,0-12.07,1.174c.542.247.849.557.327.951-.4,1.207-2.048,2.827-3.491,2.6a11.618,11.618,0,0,0-1.453,4.206c1.208.4,1.488,1.191,1.228,1.456a3.973,3.973,0,0,0-1.189,2.131,11.741,11.741,0,0,0,19.884,6.383Zm0,0" transform="translate(-302.977 -1187.051)"/></svg>