<svg xmlns="http://www.w3.org/2000/svg" width="141" height="141" viewBox="0 0 141 141"><defs><style>.a{opacity:0.1;}</style></defs><g class="a"><path d="M73.281,48.084q-1.025.029-2.05.045l-.4.007q-1.2.018-2.4.017c-.8,0-1.6-.007-2.405-.017l-.324-.007c-.71-.012-1.417-.026-2.127-.048-.05,0-.1,0-.148,0C47.121,47.6,30.956,44.755,22,39.7V54.921c5.091,5.134,22.866,9.9,46.437,9.9,20.737,0,36.976-3.694,44.055-8.075V40.913c-9.256,4.291-24.059,6.715-38.99,7.163Z" transform="translate(28.508 53.328)"/><path d="M22,30.695V45.886c.124.124.233.25.374.374.1.1.207.191.321.286,5.972,4.879,23.59,9.285,45.741,9.285,20.356,0,36.876-3.722,44.055-8.109V31.9c-10.314,4.763-27.51,7.263-44.055,7.263C50.546,39.161,31.885,36.239,22,30.695Z" transform="translate(28.508 41.233)"/><path d="M22,48.7V58.941a2.247,2.247,0,0,0,.238,1c2.493,10.288,24.319,15.665,45.008,15.665,20.651,0,42.427-5.356,45-15.605a2.375,2.375,0,0,0,.25-1.064V49.913c-10.3,4.777-27.481,7.242-44.055,7.242C50.507,57.155,31.873,54.274,22,48.7Z" transform="translate(28.508 65.389)"/><path d="M67.246,18.25c-20.694,0-42.6,5.482-45.018,15.679A2.345,2.345,0,0,0,22,34.92v6.725c5.127,5.132,23.287,9.945,46.437,9.945,20.356,0,36.876-3.722,44.055-8.109V34.92a2.257,2.257,0,0,0-.224-.962C109.887,23.741,87.959,18.25,67.246,18.25Z" transform="translate(28.508 24.463)"/><path d="M130.171,0H10.829A10.914,10.914,0,0,0,0,10.973v28.06a10.844,10.844,0,0,0,1.962,6.213H58.4c9.339-4.3,23.347-6.549,36.879-6.549s27.537,2.253,36.876,6.549h6.881A10.827,10.827,0,0,0,141,39.035V10.973A10.914,10.914,0,0,0,130.171,0ZM24.675,35.721A10.717,10.717,0,1,1,35.25,25,10.659,10.659,0,0,1,24.675,35.721ZM79.9,23.814a2.382,2.382,0,1,1,2.35-2.381A2.367,2.367,0,0,1,79.9,23.814Zm4.7,7.144a2.382,2.382,0,1,1,2.35-2.381A2.367,2.367,0,0,1,84.6,30.958Zm4.7-7.144a2.382,2.382,0,1,1,2.35-2.381A2.367,2.367,0,0,1,89.3,23.814ZM94,30.958a2.382,2.382,0,1,1,2.35-2.381A2.367,2.367,0,0,1,94,30.958Zm4.7-7.144a2.382,2.382,0,1,1,2.35-2.381A2.367,2.367,0,0,1,98.7,23.814Zm4.7,7.144a2.382,2.382,0,1,1,2.35-2.381A2.367,2.367,0,0,1,103.4,30.958Zm4.7-7.144a2.382,2.382,0,1,1,2.35-2.381A2.367,2.367,0,0,1,108.1,23.814Zm4.7,7.144a2.382,2.382,0,1,1,2.35-2.381A2.367,2.367,0,0,1,112.8,30.958Zm4.7-7.144a2.382,2.382,0,1,1,2.35-2.381A2.367,2.367,0,0,1,117.5,23.814Zm4.7,7.144a2.382,2.382,0,1,1,2.35-2.381A2.367,2.367,0,0,1,122.2,30.958Z"/><path d="M47.628,61.483V31.121a2.345,2.345,0,0,1,.229-.991c.869-3.67,4.289-6.718,9.242-9.13H1.988A10.744,10.744,0,0,0,0,27.211V55.27a10.746,10.746,0,0,0,1.988,6.213ZM25,30.526A10.716,10.716,0,1,1,14.288,41.242,10.729,10.729,0,0,1,25,30.526Z" transform="translate(0 28.09)"/><path d="M54.1,79.457c-3.3-2.1-5.534-4.6-6.234-7.494a2.247,2.247,0,0,1-.238-1V40H1.988A10.744,10.744,0,0,0,0,46.211V74.27A10.974,10.974,0,0,0,10.973,85.246H52.65C55.667,85.2,56.643,81.076,54.1,79.457ZM25,70.958A10.716,10.716,0,1,1,35.721,60.242,10.729,10.729,0,0,1,25,70.958Z" transform="translate(0 53.373)"/></g></svg>