<svg xmlns="http://www.w3.org/2000/svg" width="141" height="141" viewBox="0 0 141 141"><defs><style>.a{opacity:0.1;}</style></defs><g class="a" transform="translate(0 0)"><g transform="translate(0 0)"><path d="M113.073,48.469V30.844a4.436,4.436,0,0,0-1.261-3.128L85.718,1.278A4.32,4.32,0,0,0,82.63,0H13.047A13.134,13.134,0,0,0,0,13.219V127.781A13.134,13.134,0,0,0,13.047,141H43.49v-8.812H13.047A4.378,4.378,0,0,1,8.7,127.781V13.219a4.378,4.378,0,0,1,4.349-4.406H78.281V26.437a8.756,8.756,0,0,0,8.7,8.812h17.4V48.469Z" transform="translate(0 0)"/><path d="M151.272,256H132.654A4.654,4.654,0,0,0,128,260.654v41.89h9.309V288.581h13.963a9.309,9.309,0,0,0,9.309-9.309V265.309A9.309,9.309,0,0,0,151.272,256Zm0,23.272H137.309V265.309h13.963Z" transform="translate(-93.306 -187.305)"/><path d="M423.272,256H404.654A4.654,4.654,0,0,0,400,260.654v41.89h9.309V288.581h13.963a9.309,9.309,0,0,0,9.309-9.309V265.309A9.309,9.309,0,0,0,423.272,256Zm0,23.272H409.309V265.309h13.963Z" transform="translate(-291.581 -187.305)"/><path d="M283.927,274.618H265.309V256H256v46.545h9.309V283.927h18.618v18.618h9.309V256h-9.309Z" transform="translate(-186.824 -187.305)"/></g></g></svg>