<svg xmlns="http://www.w3.org/2000/svg" width="136.992" height="141" viewBox="0 0 136.992 141"><defs><style>.a{opacity:0.1;}</style></defs><g class="a" transform="translate(-1.405)"><g transform="translate(1.405)"><path d="M93.566,30.236H26.1a4.067,4.067,0,0,0-3.918,4.2v14.3a4.067,4.067,0,0,0,3.918,4.2H93.566a4.065,4.065,0,0,0,3.913-4.2v-14.3A4.067,4.067,0,0,0,93.566,30.236Zm-64.33,9.957A2.6,2.6,0,1,1,31.648,37.6,2.506,2.506,0,0,1,29.236,40.193Zm57.952,7.474H70.144V41.584H87.189v6.083Z" transform="translate(8.665 12.565)"/><path d="M93.566,47.075H26.1a4.069,4.069,0,0,0-3.918,4.2V65.57a4.07,4.07,0,0,0,3.918,4.2H93.566a4.068,4.068,0,0,0,3.913-4.2V51.277A4.07,4.07,0,0,0,93.566,47.075Zm-64.33,9.96a2.6,2.6,0,1,1,2.412-2.592A2.5,2.5,0,0,1,29.236,57.035Zm57.952,7.473H70.144V58.423H87.189v6.084Z" transform="translate(8.665 19.562)"/><path d="M93.566,63.915H26.1a4.069,4.069,0,0,0-3.918,4.2V82.409a4.07,4.07,0,0,0,3.918,4.2H93.566a4.069,4.069,0,0,0,3.913-4.2V68.115A4.069,4.069,0,0,0,93.566,63.915Zm-64.33,9.957a2.6,2.6,0,1,1,2.412-2.592A2.5,2.5,0,0,1,29.236,73.872Zm57.952,7.473H70.144V75.26H87.189v6.084Z" transform="translate(8.665 26.56)"/><path d="M71.173,92.079H64V80.838h-8.9V92.079H47.9v2.962H22.778v9.59H47.9V107.6H71.173v-2.966H96.3v-9.59H71.173Z" transform="translate(8.955 33.403)"/><path d="M111.009,21.834a3.451,3.451,0,0,1-2.506-1.454A29.736,29.736,0,0,0,84.44,7.689q-.894,0-1.791.056a3.369,3.369,0,0,1-2.3-.725A32.542,32.542,0,0,0,60.162,0,33.472,33.472,0,0,0,29.813,19.986a3.5,3.5,0,0,1-2.664,2.039C12.621,24.152,1.4,37.176,1.4,52.876c0,14.968,10.193,27.5,23.734,30.476V74.1a10.479,10.479,0,0,1,.546-3.289A18.847,18.847,0,0,1,13.2,52.877C13.2,42.468,21.331,34,31.332,34c.5,0,1,.042,1.5.083a5.924,5.924,0,0,0,6.193-4.623,21.959,21.959,0,0,1,21.14-17.183A21.268,21.268,0,0,1,75.4,18.749a5.742,5.742,0,0,0,5.318,1.615,17.578,17.578,0,0,1,3.721-.4,17.964,17.964,0,0,1,16.316,10.693,5.843,5.843,0,0,0,5.893,3.436,17.634,17.634,0,0,1,1.818-.1c10,0,18.138,8.469,18.138,18.878a18.849,18.849,0,0,1-12.491,17.93,10.527,10.527,0,0,1,.545,3.289v9.254C128.2,80.37,138.4,67.843,138.4,52.874,138.4,36.588,126.324,23.18,111.009,21.834Z" transform="translate(-1.405 0)"/></g></g></svg>