<svg xmlns="http://www.w3.org/2000/svg" width="26.833" height="26.82" viewBox="0 0 26.833 26.82"><defs><style>.a{fill:#dbaf10;}</style></defs><g transform="translate(0 0)"><path class="a" d="M73.187,1221.793a.524.524,0,1,0,.524.524A.524.524,0,0,0,73.187,1221.793Z" transform="translate(-62.915 -1198.118)"/><path class="a" d="M87.6,1207.867a.525.525,0,0,0-.536.022l-5.637,3.666v-3.233a.524.524,0,0,0-.81-.439l-5.636,3.666v-3.227a.524.524,0,0,0-.81-.439L68.8,1211.37c-.03-.376-.787-9.754-.794-9.845a.524.524,0,0,0-.522-.482h-4.35a.524.524,0,0,0-.522.482l-1.572,19.5a.523.523,0,0,0,.522.566H87.346a.524.524,0,0,0,.524-.524v-12.735A.525.525,0,0,0,87.6,1207.867Zm-20.318-2.317h-3.94l.1-1.2h3.746Zm-4.025,1.048h4.11c.036.449.9,11.211.955,11.844H62.3ZM67,1202.091l.1,1.206H63.52l.1-1.206Zm-4.871,18.448.085-1.048H68.4l.085,1.048Zm24.693,0H69.54l-.644-7.982,5.035-3.27v3.228a.523.523,0,0,0,.809.439l5.637-3.666v3.233a.525.525,0,0,0,.81.44l5.636-3.666Z" transform="translate(-61.038 -1194.767)"/><path class="a" d="M73.187,1219.75h3.145a.524.524,0,0,0,.524-.524v-2.1a.524.524,0,0,0-.524-.524H73.187a.524.524,0,0,0-.524.524v2.1A.524.524,0,0,0,73.187,1219.75Zm.524-2.1h2.1v1.048h-2.1Z" transform="translate(-62.915 -1197.28)"/><path class="a" d="M79.437,1219.75h3.3a.524.524,0,0,0,.524-.524v-2.1a.524.524,0,0,0-.524-.524h-3.3a.523.523,0,0,0-.524.524v2.1A.524.524,0,0,0,79.437,1219.75Zm.524-2.1h2.253v1.048H79.961Z" transform="translate(-63.924 -1197.28)"/><path class="a" d="M85.874,1219.75h3.3a.524.524,0,0,0,.524-.524v-2.1a.523.523,0,0,0-.524-.524h-3.3a.524.524,0,0,0-.524.524v2.1A.524.524,0,0,0,85.874,1219.75Zm.524-2.1h2.253v1.048H86.4Z" transform="translate(-64.963 -1197.28)"/><path class="a" d="M64.312,1197.738a.524.524,0,0,0,.524-.524,1.574,1.574,0,0,1,1.572-1.572H72.8a1.592,1.592,0,0,0,1.127-.47,1.526,1.526,0,0,0,.445-1.1.524.524,0,0,0-.524-.517h-.007a.524.524,0,0,0-.517.53.484.484,0,0,1-.143.346.541.541,0,0,1-.382.158H66.408a2.624,2.624,0,0,0-2.62,2.62A.524.524,0,0,0,64.312,1197.738Z" transform="translate(-61.482 -1193.559)"/><path class="a" d="M74.354,1197.087l-5.869.006a1.574,1.574,0,0,0-1.572,1.572.524.524,0,0,0,1.048,0,.525.525,0,0,1,.524-.524l5.87-.006a1.562,1.562,0,0,0,1.572-1.547v-.013a.524.524,0,0,0-1.048,0v.013A.513.513,0,0,1,74.354,1197.087Z" transform="translate(-61.987 -1193.961)"/><path class="a" d="M87.531,1221.793H75.687a.524.524,0,1,0,0,1.048H87.531a.524.524,0,1,0,0-1.048Z" transform="translate(-63.319 -1198.118)"/><path class="a" d="M65.312,1211.4h1.2a.524.524,0,1,0,0-1.048h-1.2a.524.524,0,1,0,0,1.048Z" transform="translate(-61.643 -1196.271)"/><path class="a" d="M65.312,1213.9h1.2a.524.524,0,0,0,0-1.048h-1.2a.524.524,0,0,0,0,1.048Z" transform="translate(-61.643 -1196.675)"/><path class="a" d="M65.312,1216.4h1.2a.524.524,0,0,0,0-1.048h-1.2a.524.524,0,0,0,0,1.048Z" transform="translate(-61.643 -1197.078)"/><path class="a" d="M66.517,1217.856h-1.2a.524.524,0,0,0,0,1.048h1.2a.524.524,0,0,0,0-1.048Z" transform="translate(-61.643 -1197.482)"/></g></svg>