<svg xmlns="http://www.w3.org/2000/svg" width="185.108" height="141" viewBox="0 0 185.108 141"><defs><style>.a{opacity:0.1;}</style></defs><g class="a" transform="translate(0 -61)"><g transform="translate(27.604 61)"><path d="M197.412,175.6a51.921,51.921,0,0,1-8.885-29.079V117.038a44.686,44.686,0,0,0-13.413-32.011,45.413,45.413,0,0,0-26.86-12.875V61H137.309V72.193a45.719,45.719,0,0,0-39.99,45.277v29.054A51.921,51.921,0,0,1,88.434,175.6l-10.461,15.55h49.474a16.465,16.465,0,0,0,30.952,0h49.474Z" transform="translate(-77.973 -61)"/></g><g transform="translate(161.874 94.099)"><path d="M456.056,153.469l-7.739,7.739a41.956,41.956,0,0,1,.461,58.867l7.859,7.618a52.9,52.9,0,0,0-.581-74.224Z" transform="translate(-448.317 -153.469)"/></g><g transform="translate(146.396 109.574)"><path d="M413.63,195.9l-7.739,7.74a20.065,20.065,0,0,1,.156,28.218l7.824,7.654a31.01,31.01,0,0,0-.241-43.612Z" transform="translate(-405.891 -195.896)"/></g><g transform="translate(0 94.099)"><path d="M23.234,161.208l-7.739-7.739a52.9,52.9,0,0,0-.581,74.224l7.859-7.618a41.956,41.956,0,0,1,.461-58.867Z" transform="translate(0 -153.469)"/></g><g transform="translate(21.89 109.573)"><path d="M76.822,203.635l-7.739-7.74a31.011,31.011,0,0,0-.242,43.612l7.824-7.654a20.066,20.066,0,0,1,.157-28.219Z" transform="translate(-60 -195.895)"/></g></g></svg>