<svg xmlns="http://www.w3.org/2000/svg" width="140.968" height="141" viewBox="0 0 140.968 141"><defs><style>.a{opacity:0.1;}</style></defs><g class="a" transform="translate(-0.05 0.001)"><path d="M218.132,141.143a5.041,5.041,0,1,1-5.041-5.041A5.041,5.041,0,0,1,218.132,141.143Zm0,0" transform="translate(-142.558 -93.281)"/><path d="M173.092,17.673a12.6,12.6,0,0,1,24.951-2.52h5.117a17.642,17.642,0,0,0-35.108,2.52v7.561h5.041Zm0,0" transform="translate(-115.159 0)"/><path d="M83.73,141.467a7.555,7.555,0,0,1-7.549-7.561V111.224H58.567a2.518,2.518,0,0,0-2.516,2.52v68.048H161.735V113.744a2.518,2.518,0,0,0-2.516-2.52H141.6v5.041h-5.033V98.622a2.518,2.518,0,0,0-2.516-2.52H83.73a2.518,2.518,0,0,0-2.516,2.52v35.284a2.518,2.518,0,0,0,2.516,2.52h25.163v5.041Zm69.718-10.82L135.835,148.29a2.515,2.515,0,0,1-3.558,0l-7.549-7.561,3.558-3.564,5.77,5.779,15.835-15.86ZM134.055,121.3a19.971,19.971,0,0,1,11.5,3.617l-2.879,4.132a15.131,15.131,0,1,0,6.473,12.413A15.733,15.733,0,0,0,149,139.3l4.982-.711A20.122,20.122,0,1,1,134.055,121.3Zm-17.614,37.8v5.041h-5.033v-5.041Zm-10.065-30.244v-5.4a10.067,10.067,0,1,1,5.033,0v5.4Zm5.033,20.162v5.041h-30.2a7.561,7.561,0,0,0,0,15.122h55.358a7.55,7.55,0,0,0,7.312-5.668l4.872,1.26a12.584,12.584,0,0,1-12.183,9.449H81.214a12.6,12.6,0,0,1,0-25.2Zm-5.033,10.081v5.041h-5.033v-5.041Zm-10.065,0v5.041H91.279v-5.041Zm-10.065,0v5.041H81.214v-5.041Zm0,0" transform="translate(-38.359 -65.919)"/><path d="M94.232,416.1l-4.3,4.3a2.516,2.516,0,0,1-1.78.738H52.913a2.516,2.516,0,0,1-1.78-.738l-4.3-4.3H.05v5.041a5.038,5.038,0,0,0,5.035,5.041h130.9a5.038,5.038,0,0,0,5.035-5.041V416.1Zm0,0" transform="translate(0 -285.184)"/><path d="M66.1,203.57l4.3,4.3H103.55l4.3-4.3a2.515,2.515,0,0,1,1.78-.738H149.9V122.182A10.075,10.075,0,0,0,139.829,112.1H119.694v5.041h17.618a7.556,7.556,0,0,1,7.551,7.561v70.568a2.519,2.519,0,0,1-2.517,2.52H31.6a2.519,2.519,0,0,1-2.517-2.52V124.7a7.556,7.556,0,0,1,7.551-7.561H54.254V112.1H34.119a10.075,10.075,0,0,0-10.068,10.081v80.649H64.322a2.515,2.515,0,0,1,1.78.738Zm0,0" transform="translate(-16.44 -76.955)"/></g></svg>