<svg xmlns="http://www.w3.org/2000/svg" width="233.022" height="233.022" viewBox="0 0 233.022 233.022"><defs><style>.a,.b,.c,.e{fill:none;}.a,.c{stroke:#fff;}.a{opacity:0.2;}.b{opacity:0.15;}.c{opacity:0.1;}.d,.f{stroke:none;}.f{fill:#fff;}</style></defs><g transform="translate(-141 -1142)"><g class="a" transform="translate(141 1142)"><circle class="d" cx="116.511" cy="116.511" r="116.511"/><circle class="e" cx="116.511" cy="116.511" r="116.011"/></g><g class="b" transform="translate(162.967 1163.967)"><path class="d" d="M94.544,0A94.544,94.544,0,1,1,0,94.544,94.544,94.544,0,0,1,94.544,0Z"/><path class="f" d="M 94.54366302490234 1 C 88.19618988037109 1 81.85299682617188 1.639419555664062 75.69028472900391 2.900497436523438 C 69.68470764160156 4.12939453125 63.77745056152344 5.963119506835938 58.13253784179688 8.3507080078125 C 52.58992004394531 10.69503784179688 47.24397277832031 13.59674072265625 42.24320983886719 16.97518920898438 C 37.28968811035156 20.32171630859375 32.631591796875 24.16502380371094 28.39830017089844 28.39830017089844 C 24.16502380371094 32.631591796875 20.32171630859375 37.28968811035156 16.97518920898438 42.24320983886719 C 13.59674072265625 47.24397277832031 10.69503784179688 52.58992004394531 8.3507080078125 58.13253784179688 C 5.963119506835938 63.77745056152344 4.12939453125 69.68470764160156 2.900497436523438 75.69028472900391 C 1.639419555664062 81.85299682617188 1 88.19618988037109 1 94.54366302490234 C 1 100.8911361694336 1.639419555664062 107.2343292236328 2.900497436523438 113.3970413208008 C 4.12939453125 119.4026184082031 5.963119506835938 125.3098754882812 8.3507080078125 130.9547729492188 C 10.69503784179688 136.4974060058594 13.59674072265625 141.8433532714844 16.97518920898438 146.8441162109375 C 20.32171630859375 151.7976379394531 24.16502380371094 156.4557342529297 28.39830017089844 160.6890258789062 C 32.631591796875 164.9223022460938 37.28968811035156 168.7656097412109 42.24320983886719 172.1121368408203 C 47.24397277832031 175.4905853271484 52.58992004394531 178.3922882080078 58.13253784179688 180.7366180419922 C 63.77745056152344 183.1242065429688 69.68470764160156 184.9579315185547 75.69028472900391 186.1868286132812 C 81.85299682617188 187.4479064941406 88.19618988037109 188.0873260498047 94.54366302490234 188.0873260498047 C 100.8911361694336 188.0873260498047 107.2343292236328 187.4479064941406 113.3970413208008 186.1868286132812 C 119.4026184082031 184.9579315185547 125.3098754882812 183.1242065429688 130.9547729492188 180.7366180419922 C 136.4974060058594 178.3922882080078 141.8433532714844 175.4905853271484 146.8441162109375 172.1121368408203 C 151.7976379394531 168.7656097412109 156.4557342529297 164.9223022460938 160.6890258789062 160.6890258789062 C 164.9223022460938 156.4557342529297 168.7656097412109 151.7976379394531 172.1121368408203 146.8441162109375 C 175.4905853271484 141.8433532714844 178.3922882080078 136.4974060058594 180.7366180419922 130.9547729492188 C 183.1242065429688 125.3098754882812 184.9579315185547 119.4026184082031 186.1868286132812 113.3970413208008 C 187.4479064941406 107.2343292236328 188.0873260498047 100.8911361694336 188.0873260498047 94.54366302490234 C 188.0873260498047 88.19618988037109 187.4479064941406 81.85299682617188 186.1868286132812 75.69028472900391 C 184.9579315185547 69.68470764160156 183.1242065429688 63.77745056152344 180.7366180419922 58.13253784179688 C 178.3922882080078 52.58992004394531 175.4905853271484 47.24397277832031 172.1121368408203 42.24320983886719 C 168.7656097412109 37.28968811035156 164.9223022460938 32.631591796875 160.6890258789062 28.39830017089844 C 156.4557342529297 24.16502380371094 151.7976379394531 20.32171630859375 146.8441162109375 16.97518920898438 C 141.8433532714844 13.59674072265625 136.4974060058594 10.69503784179688 130.9547729492188 8.3507080078125 C 125.3098754882812 5.963119506835938 119.4026184082031 4.12939453125 113.3970413208008 2.900497436523438 C 107.2343292236328 1.639419555664062 100.8911361694336 1 94.54366302490234 1 M 94.54366302490234 0 C 146.7586822509766 0 189.0873260498047 42.32864379882812 189.0873260498047 94.54366302490234 C 189.0873260498047 146.7586822509766 146.7586822509766 189.0873260498047 94.54366302490234 189.0873260498047 C 42.32864379882812 189.0873260498047 0 146.7586822509766 0 94.54366302490234 C 0 42.32864379882812 42.32864379882812 0 94.54366302490234 0 Z"/></g><g class="c" transform="translate(187.391 1188.391)"><circle class="d" cx="70.293" cy="70.293" r="70.293"/><circle class="e" cx="70.293" cy="70.293" r="69.793"/></g></g></svg>