<svg xmlns="http://www.w3.org/2000/svg" width="21.956" height="27.443" viewBox="0 0 21.956 27.443"><defs><style>.a{fill:#0090d3;}</style></defs><g transform="translate(0 0)"><path class="a" d="M76.626,1111.794H75.193a.57.57,0,0,0-.569.569v1.218a4.19,4.19,0,0,0-.683.283l-.861-.861a.57.57,0,0,0-.806,0l-1.013,1.013a.57.57,0,0,0,0,.806l.861.861a4.238,4.238,0,0,0-.283.683H70.62a.57.57,0,0,0-.569.569v1.433a.57.57,0,0,0,.569.569h1.218a4.267,4.267,0,0,0,.283.683l-.861.861a.57.57,0,0,0,0,.806l1.013,1.013a.57.57,0,0,0,.806,0l.861-.861a4.267,4.267,0,0,0,.683.283v1.218a.57.57,0,0,0,.569.569h1.433a.57.57,0,0,0,.569-.569v-1.218a4.235,4.235,0,0,0,.683-.283l.861.861a.57.57,0,0,0,.806,0l1.013-1.013a.57.57,0,0,0,0-.806l-.861-.861a4.19,4.19,0,0,0,.283-.683H81.2a.57.57,0,0,0,.569-.569v-1.433a.57.57,0,0,0-.569-.569H79.981a4.162,4.162,0,0,0-.283-.683l.861-.861a.57.57,0,0,0,0-.806L79.546,1113a.57.57,0,0,0-.806,0l-.86.861a4.2,4.2,0,0,0-.684-.283v-1.218A.569.569,0,0,0,76.626,1111.794Zm1.109,2.912a.4.4,0,0,0,.5-.057l.911-.911.682.681-.911.912a.4.4,0,0,0-.057.5,3.43,3.43,0,0,1,.428,1.032.4.4,0,0,0,.392.311h1.29v.963h-1.29a.4.4,0,0,0-.392.31,3.435,3.435,0,0,1-.428,1.033.4.4,0,0,0,.057.5l.911.911-.682.682-.911-.911a.4.4,0,0,0-.5-.057,3.457,3.457,0,0,1-1.032.428.4.4,0,0,0-.311.391v1.29h-.963v-1.29a.4.4,0,0,0-.31-.391,3.453,3.453,0,0,1-1.033-.428.4.4,0,0,0-.5.057l-.911.911-.682-.682.911-.911a.4.4,0,0,0,.057-.5,3.457,3.457,0,0,1-.428-1.033.4.4,0,0,0-.391-.31h-1.29v-.963h1.29a.4.4,0,0,0,.391-.311,3.452,3.452,0,0,1,.428-1.032.4.4,0,0,0-.057-.5l-.911-.912.682-.681.911.911a.4.4,0,0,0,.5.057,3.437,3.437,0,0,1,1.033-.428.4.4,0,0,0,.31-.391v-1.29h.963v1.29a.4.4,0,0,0,.311.391A3.441,3.441,0,0,1,77.735,1114.706Z" transform="translate(-64.932 -1106.675)"/><path class="a" d="M74.469,1118.365a2.154,2.154,0,1,0,2.154-2.153A2.156,2.156,0,0,0,74.469,1118.365Zm3.5,0a1.35,1.35,0,1,1-1.349-1.349A1.351,1.351,0,0,1,77.972,1118.365Z" transform="translate(-65.645 -1107.388)"/><path class="a" d="M65.682,1118.3H64.348a.4.4,0,1,0,0,.8h1.333a.4.4,0,0,0,0-.8Z" transform="translate(-63.946 -1107.725)"/><path class="a" d="M89.316,1118.3H87.982a.4.4,0,0,0,0,.8h1.334a.4.4,0,0,0,0-.8Z" transform="translate(-67.762 -1107.725)"/><path class="a" d="M68.7,1126.212l-.943.943a.4.4,0,0,0,.568.569l.943-.943a.4.4,0,0,0-.569-.568Z" transform="translate(-64.542 -1108.984)"/><path class="a" d="M85.038,1111.012l.943-.943a.4.4,0,1,0-.569-.569l-.943.943a.4.4,0,0,0,.569.569Z" transform="translate(-67.241 -1106.285)"/><path class="a" d="M76.961,1107.826a.4.4,0,0,0,.4-.4v-1.334a.4.4,0,0,0-.8,0v1.334A.4.4,0,0,0,76.961,1107.826Z" transform="translate(-65.982 -1105.689)"/><path class="a" d="M85.038,1126.212a.4.4,0,0,0-.569.568l.943.943a.4.4,0,1,0,.569-.569Z" transform="translate(-67.241 -1108.984)"/><path class="a" d="M68.7,1111.012a.4.4,0,1,0,.569-.569l-.943-.943a.4.4,0,0,0-.568.569Z" transform="translate(-64.542 -1106.285)"/><path class="a" d="M78.127,1109.178a.4.4,0,1,0-.1.8,7.241,7.241,0,0,1,6.333,6.362.4.4,0,0,0,.4.355l.048,0a.4.4,0,0,0,.352-.446A8.085,8.085,0,0,0,78.127,1109.178Z" transform="translate(-66.163 -1106.252)"/><path class="a" d="M83.146,1117.769a.4.4,0,0,0-.449.349,7.244,7.244,0,0,1-3.352,5.24,2.707,2.707,0,0,0-1.278,2.3v1.654H72.9v-1.691a2.647,2.647,0,0,0-1.239-2.239,7.272,7.272,0,0,1,2.933-13.405.4.4,0,1,0-.1-.8,8.076,8.076,0,0,0-3.258,14.887,1.838,1.838,0,0,1,.858,1.556v1.749a1.048,1.048,0,0,0-.7.987v.573a1.039,1.039,0,0,1,0,1.286v.573a1.047,1.047,0,0,0,1.046,1.046H73.7v.908a.952.952,0,0,0,.951.951h1.661a.952.952,0,0,0,.951-.951v-.908h1.264a1.047,1.047,0,0,0,1.046-1.046v-.573a1.039,1.039,0,0,1,0-1.286v-.573a1.048,1.048,0,0,0-.7-.987v-1.712a1.906,1.906,0,0,1,.9-1.62,8.044,8.044,0,0,0,3.722-5.82A.4.4,0,0,0,83.146,1117.769Zm-4.618,10.348h0a.245.245,0,0,1,.242.242v.573a.245.245,0,0,1-.242.241h-6.09a.245.245,0,0,1-.242-.241v-.573a.245.245,0,0,1,.242-.242h6.09Zm-2.068,4.628a.149.149,0,0,1-.147.147H74.652a.149.149,0,0,1-.147-.147v-.908H76.46v.908Zm2.309-1.954a.245.245,0,0,1-.242.241h-6.09a.245.245,0,0,1-.242-.241v-.573a.245.245,0,0,1,.242-.241h6.09a.245.245,0,0,1,.242.241Z" transform="translate(-64.505 -1106.252)"/></g></svg>