<svg xmlns="http://www.w3.org/2000/svg" width="161.335" height="141" viewBox="0 0 161.335 141"><defs><style>.a{opacity:0.1;}</style></defs><g class="a" transform="translate(0 2.082)"><path d="M209.895,41.047h-.01a2.925,2.925,0,0,0-.008,5.85h.01a2.925,2.925,0,0,0,.008-5.85Zm0,0" transform="translate(-139.183 -30.748)"/><path d="M0,212.256c.008,7.771,6.023,14.069,13.445,14.078H147.89c7.421-.009,13.437-6.307,13.445-14.078V120.535H0Zm97.033-57.069a3.085,3.085,0,0,1-.322-4.212,2.764,2.764,0,0,1,4.021-.336l18.452,16.454a3.08,3.08,0,0,1,0,4.549L100.731,188.1a2.764,2.764,0,0,1-4.021-.336,3.084,3.084,0,0,1,.322-4.21l15.9-14.181ZM71.34,197.549l11.5-57.181a2.856,2.856,0,0,1,3.378-2.308,2.988,2.988,0,0,1,2.2,3.538l-11.5,57.182a2.857,2.857,0,0,1-3.379,2.306,2.988,2.988,0,0,1-2.2-3.538ZM42.152,167.094,60.6,150.64a2.764,2.764,0,0,1,4.021.336,3.085,3.085,0,0,1-.322,4.212L48.4,169.37l15.9,14.181a3.086,3.086,0,0,1,.321,4.21,2.764,2.764,0,0,1-4.021.336L42.153,171.643a3.08,3.08,0,0,1,0-4.549Zm0,0" transform="translate(0 -87.417)"/><path d="M124.931,40.777h-.01a2.926,2.926,0,0,0-.009,5.849h.009a2.926,2.926,0,0,0,.009-5.849Zm0,0" transform="translate(-82.086 -30.555)"/><path d="M147.89-2.082H13.445C6.023-2.075.008,3.223,0,9.76V28.095H161.335V9.76c-.008-6.537-6.023-11.835-13.445-11.842Zm-132.6,23.1h-.028c-4.99-.007-9.028-3.574-9.024-7.969S10.29,5.1,15.279,5.1s9.037,3.56,9.039,7.955-4.035,7.962-9.025,7.969Zm36.755-7.849c-.02,4.379-4.055,7.92-9.025,7.925h-.028c-4.926-.077-8.871-3.621-8.862-7.961S38.1,5.265,43.022,5.2h.031c4.982.018,9.006,3.585,9,7.973Zm27.729.077c-.015,4.379-4.05,7.923-9.023,7.924h-.028c-4.962-.035-8.959-3.591-8.953-7.962S65.795,5.3,70.756,5.275h.027c4.983.018,9.008,3.585,9,7.974Zm0,0" transform="translate(0 0)"/><path d="M39.819,40.516h-.01a2.925,2.925,0,0,0-.008,5.849h.008a2.925,2.925,0,0,0,.01-5.849Zm0,0" transform="translate(-26.339 -30.369)"/></g></svg>